<svg width="614" height="334" xmlns="http://www.w3.org/2000/svg" xmlns:xlink="http://www.w3.org/1999/xlink" version="1.1" baseProfile="full" viewBox="0 0 614 334">
<defs><style type="text/css">@import url(http://fonts.googleapis.com/css?family=Manrope);</style></defs>
<rect width="614" height="334" x="0" y="0" id="0" fill="#222430"></rect>
<path d="M307.5 102L307.5 232" fill="none" stroke="#6C7080"></path>
<path d="M256.5 102L256.5 232" fill="none" stroke="#6C7080"></path>
<path d="M204.5 102L204.5 232" fill="none" stroke="#6C7080"></path>
<path d="M153.5 102L153.5 232" fill="none" stroke="#6C7080"></path>
<path d="M102.5 102L102.5 232" fill="none" stroke="#6C7080"></path>
<path d="M51.5 102L51.5 232" fill="none" stroke="#6C7080"></path>
<path d="M0.5 102L0.5 232" fill="none" stroke="#6C7080"></path>
<path d="M307.5 102L307.5 232" fill="none" stroke="#6E7079" stroke-linecap="round"></path>
<path d="M307 102.5L302 102.5" fill="none" stroke="#6E7079"></path>
<path d="M307 128.5L302 128.5" fill="none" stroke="#6E7079"></path>
<path d="M307 154.5L302 154.5" fill="none" stroke="#6E7079"></path>
<path d="M307 180.5L302 180.5" fill="none" stroke="#6E7079"></path>
<path d="M307 206.5L302 206.5" fill="none" stroke="#6E7079"></path>
<path d="M307 232.5L302 232.5" fill="none" stroke="#6E7079"></path>
<text dominant-baseline="central" text-anchor="end" style="font-size:12px;font-family:sans-serif;" transform="translate(-8 115)" fill="#6E7079">50</text>
<text dominant-baseline="central" text-anchor="end" style="font-size:12px;font-family:sans-serif;" transform="translate(-8 141)" fill="#6E7079">20</text>
<text dominant-baseline="central" text-anchor="end" style="font-size:12px;font-family:sans-serif;" transform="translate(-8 167)" fill="#6E7079">55</text>
<text dominant-baseline="central" text-anchor="end" style="font-size:12px;font-family:sans-serif;" transform="translate(-8 193)" fill="#6E7079">24</text>
<text dominant-baseline="central" text-anchor="end" style="font-size:12px;font-family:sans-serif;" transform="translate(-8 219)" fill="#6E7079">1</text>
<path d="M-3.66 0l7.32 0l0 16l-7.32 0Z" transform="translate(307 234)" fill="none"></path>
<text dominant-baseline="central" text-anchor="middle" style="font-size:12px;font-family:Manrope;font-weight:400;" y="8" transform="translate(307 234)" fill="#6C7080">0</text>
<path d="M-6 0l11.9999 0l0 16l-11.9999 0Z" transform="translate(255.8333 234)" fill="none"></path>
<text dominant-baseline="central" text-anchor="middle" style="font-size:12px;font-family:Manrope;font-weight:400;" y="8" transform="translate(255.8333 234)" fill="#6C7080">10</text>
<path d="M-7.08 0l14.1599 0l0 16l-14.1599 0Z" transform="translate(204.6667 234)" fill="none"></path>
<text dominant-baseline="central" text-anchor="middle" style="font-size:12px;font-family:Manrope;font-weight:400;" y="8" transform="translate(204.6667 234)" fill="#6C7080">20</text>
<path d="M-6.978 0l13.9559 0l0 16l-13.9559 0Z" transform="translate(153.5 234)" fill="none"></path>
<text dominant-baseline="central" text-anchor="middle" style="font-size:12px;font-family:Manrope;font-weight:400;" y="8" transform="translate(153.5 234)" fill="#6C7080">30</text>
<path d="M-7.198 0l14.396 0l0 16l-14.396 0Z" transform="translate(102.3333 234)" fill="none"></path>
<text dominant-baseline="central" text-anchor="middle" style="font-size:12px;font-family:Manrope;font-weight:400;" y="8" transform="translate(102.3333 234)" fill="#6C7080">40</text>
<path d="M-7.126 0l14.252 0l0 16l-14.252 0Z" transform="translate(51.1667 234)" fill="none"></path>
<text dominant-baseline="central" text-anchor="middle" style="font-size:12px;font-family:Manrope;font-weight:400;" y="8" transform="translate(51.1667 234)" fill="#6C7080">50</text>
<path d="M-7.384 0l14.768 0l0 16l-14.768 0Z" transform="translate(0 234)" fill="none"></path>
<text dominant-baseline="central" text-anchor="middle" style="font-size:12px;font-family:Manrope;font-weight:400;" y="8" transform="translate(0 234)" fill="#6C7080">60</text>
<path d="M504 108L608 108Q616 108 616 116L616 220Q616 228 608 228L504 228Q496 228 496 220L496 116Q496 108 504 108Z" fill="#1a1a25"></path>
<image href="https://images.unsplash.com/photo-1682695796795-cc287af78a2b?q=80&w=2940&auto=format&fit=crop&ixlib=rb-4.0.3&ixid=M3wxMjA3fDF8MHxwaG90by1wYWdlfHx8fGVufDB8fHx8fA%3D%3D" width="120" height="120" transform="translate(496 108)" opacity="1"></image>
<path d="M0 0l29.505 0l0 20l-29.505 0Z" transform="translate(316 105)" fill="none"></path>
<text dominant-baseline="central" text-anchor="start" style="font-size:14px;font-family:Manrope, sans-serif;font-weight:500;" y="10" transform="translate(316 105)" fill="#fff">50%</text>
<path d="M0 0l137.5218 0l0 20l-137.5218 0Z" transform="translate(352 105)" fill="none"></path>
<text dominant-baseline="central" text-anchor="start" style="font-size:14px;font-family:Manrope, sans-serif;font-weight:500;" xml:space="preserve" y="10" transform="translate(352 105)" fill="#c8cad0">Exciting Exciting Ex...</text>
<path d="M504 108L608 108Q616 108 616 116L616 220Q616 228 608 228L504 228Q496 228 496 220L496 116Q496 108 504 108Z" fill="#1a1a25"></path>
<image href="https://images.unsplash.com/photo-1682695796795-cc287af78a2b?q=80&w=2940&auto=format&fit=crop&ixlib=rb-4.0.3&ixid=M3wxMjA3fDF8MHxwaG90by1wYWdlfHx8fGVufDB8fHx8fA%3D%3D" width="120" height="120" transform="translate(496 108)" opacity="1"></image>
<path d="M0 0l29.477 0l0 20l-29.477 0Z" transform="translate(316 131)" fill="none"></path>
<text dominant-baseline="central" text-anchor="start" style="font-size:14px;font-family:Manrope, sans-serif;font-weight:500;" y="10" transform="translate(316 131)" fill="#fff">20%</text>
<path d="M0 0l133.0139 0l0 20l-133.0139 0Z" transform="translate(352 131)" fill="none"></path>
<text dominant-baseline="central" text-anchor="start" style="font-size:14px;font-family:Manrope, sans-serif;font-weight:500;" xml:space="preserve" y="10" transform="translate(352 131)" fill="#c8cad0">Intriguing Intriguin...</text>
<path d="M504 108L608 108Q616 108 616 116L616 220Q616 228 608 228L504 228Q496 228 496 220L496 116Q496 108 504 108Z" fill="#1a1a25"></path>
<image href="https://images.unsplash.com/photo-1682695796795-cc287af78a2b?q=80&w=2940&auto=format&fit=crop&ixlib=rb-4.0.3&ixid=M3wxMjA3fDF8MHxwaG90by1wYWdlfHx8fGVufDB8fHx8fA%3D%3D" width="120" height="120" transform="translate(496 108)" opacity="1"></image>
<path d="M0 0l28.868 0l0 20l-28.868 0Z" transform="translate(316 157)" fill="none"></path>
<text dominant-baseline="central" text-anchor="start" style="font-size:14px;font-family:Manrope, sans-serif;font-weight:500;" y="10" transform="translate(316 157)" fill="#fff">55%</text>
<path d="M0 0l85.0149 0l0 20l-85.0149 0Z" transform="translate(352 157)" fill="none"></path>
<text dominant-baseline="central" text-anchor="start" style="font-size:14px;font-family:Manrope, sans-serif;font-weight:500;" y="10" transform="translate(352 157)" fill="#c8cad0">Close-ended</text>
<path d="M504 108L608 108Q616 108 616 116L616 220Q616 228 608 228L504 228Q496 228 496 220L496 116Q496 108 504 108Z" fill="#1a1a25"></path>
<image href="https://images.unsplash.com/photo-1682695796795-cc287af78a2b?q=80&w=2940&auto=format&fit=crop&ixlib=rb-4.0.3&ixid=M3wxMjA3fDF8MHxwaG90by1wYWdlfHx8fGVufDB8fHx8fA%3D%3D" width="120" height="120" transform="translate(496 108)" opacity="1"></image>
<path d="M0 0l28.777 0l0 20l-28.777 0Z" transform="translate(316 183)" fill="none"></path>
<text dominant-baseline="central" text-anchor="start" style="font-size:14px;font-family:Manrope, sans-serif;font-weight:500;" y="10" transform="translate(316 183)" fill="#fff">24%</text>
<path d="M0 0l42.651 0l0 20l-42.651 0Z" transform="translate(352 183)" fill="none"></path>
<text dominant-baseline="central" text-anchor="start" style="font-size:14px;font-family:Manrope, sans-serif;font-weight:500;" y="10" transform="translate(352 183)" fill="#c8cad0">Boring</text>
<path d="M504 108L608 108Q616 108 616 116L616 220Q616 228 608 228L504 228Q496 228 496 220L496 116Q496 108 504 108Z" fill="#1a1a25"></path>
<image href="https://images.unsplash.com/photo-1682695796795-cc287af78a2b?q=80&w=2940&auto=format&fit=crop&ixlib=rb-4.0.3&ixid=M3wxMjA3fDF8MHxwaG90by1wYWdlfHx8fGVufDB8fHx8fA%3D%3D" width="120" height="120" transform="translate(496 108)" opacity="1"></image>
<path d="M0 0l18.298 0l0 20l-18.298 0Z" transform="translate(316 209)" fill="none"></path>
<text dominant-baseline="central" text-anchor="start" style="font-size:14px;font-family:Manrope, sans-serif;font-weight:500;" y="10" transform="translate(316 209)" fill="#fff">1%</text>
<path d="M0 0l61.537 0l0 20l-61.537 0Z" transform="translate(352 209)" fill="none"></path>
<text dominant-baseline="central" text-anchor="start" style="font-size:14px;font-family:Manrope, sans-serif;font-weight:500;" y="10" transform="translate(352 209)" fill="#c8cad0">Engaging</text>
<path d="M307 107l-255.8333 0l0 16l255.8333 0Z" fill="#25B4C8"></path>
<path d="M307 133l-102.3333 0l0 16l102.3333 0Z" fill="#25B4C8"></path>
<path d="M307 159l-281.4167 0l0 16l281.4167 0Z" fill="#25B4C8"></path>
<path d="M307 185l-122.8 0l0 16l122.8 0Z" fill="#25B4C8"></path>
<path d="M307 211l-5.1167 0l0 16l5.1167 0Z" fill="#25B4C8"></path>
</svg>