<svg width="614" height="346" xmlns="http://www.w3.org/2000/svg" xmlns:xlink="http://www.w3.org/1999/xlink" version="1.1" baseProfile="full" viewBox="0 0 614 346">
<defs><style type="text/css">@import url(http://fonts.googleapis.com/css?family=Manrope);</style></defs>
<rect width="614" height="346" x="0" y="0" id="0" fill="none"></rect>
<path d="M153.5 81L153.5 121Z" fill="#FF877C"></path>
<path d="M153.5 81L153.5 121Z" fill="#25B4C8"></path>
<path d="M153.5 81L153.5 121Z" fill="#D88ADA"></path>
<path d="M153.5 81L153.5 121Z" fill="#9ECC7F"></path>
<path d="M153.5 81L153.5 121Z" fill="#F9DE82"></path>
<path d="M153.5 81L153.5 121Z" fill="#39519B"></path>
<path d="M153.5 81L153.5 121Z" fill="#FF877C"></path>
<path d="M153.5 81L153.5 121Z" fill="#25B4C8"></path>
<path d="M153.5 81L153.5 121Z" fill="#D88ADA"></path>
<path d="M153.5 81L153.5 121Z" fill="#9ECC7F"></path>
<path d="M153.5 81L153.5 121Z" fill="#F9DE82"></path>
<path d="M153.5 81L153.5 121Z" fill="#39519B"></path>
<path d="M153.5 81L153.5 121Z" fill="#FF877C"></path>
<path d="M153.5 81L153.5 121Z" fill="#25B4C8"></path>
<path d="M153.5 81L153.5 121Z" fill="#D88ADA"></path>
<path d="M153.5 81L153.5 121Z" fill="#9ECC7F"></path>
<path d="M-5 -5l307.6351 0l0 346l-307.6351 0Z" transform="translate(312 5)" fill="rgb(0,0,0)" fill-opacity="0" stroke="#ccc" stroke-width="0"></path>
<g clip-path="url(#zr0-c0)">
<path d="M18.5 6A6 6 0 1 1 18.5 5.9994" transform="translate(305.5 35)" fill="#FF877C"></path>
<image href="https://images.unsplash.com/photo-1702744473287-4cc284e97206?q=80&w=2864&auto=format&fit=crop&ixlib=rb-4.0.3&ixid=M3wxMjA3fDB8MHxwaG90by1wYWdlfHx8fGVufDB8fHx8fA%3D%3D" width="72" height="72" x="30" y="-30" transform="translate(305.5 35)" opacity="1"></image>
<text dominant-baseline="central" text-anchor="start" style="font: normal normal 12px sans-serif" xml:space="preserve" x="102" y="6" transform="translate(305.5 35)" fill="#333">   </text>
<text dominant-baseline="central" text-anchor="start" style="font-size:14px;font-family:Manrope;" x="112.001953125" y="6" transform="translate(305.5 35)" fill="#fff">10%</text>
<text dominant-baseline="central" text-anchor="start" style="font: normal normal 12px sans-serif" xml:space="preserve" x="138.6229248046875" y="6" transform="translate(305.5 35)" fill="#333"> </text>
<text dominant-baseline="central" text-anchor="start" style="font-size:14px;font-family:Manrope;" xml:space="preserve" x="141.9569091796875" y="6" transform="translate(305.5 35)" fill="#6C7080">Search Engine Search E...</text>
<path d="M18.5 6A6 6 0 1 1 18.5 5.9994" transform="translate(305.5 117)" fill="#25B4C8"></path>
<image href="https://images.unsplash.com/photo-1682686580391-615b1f28e5ee?q=80&w=2940&auto=format&fit=crop&ixlib=rb-4.0.3&ixid=M3wxMjA3fDF8MHxwaG90by1wYWdlfHx8fGVufDB8fHx8fA%3D%3D" width="72" height="72" x="30" y="-30" transform="translate(305.5 117)" opacity="1"></image>
<text dominant-baseline="central" text-anchor="start" style="font: normal normal 12px sans-serif" xml:space="preserve" x="102" y="6" transform="translate(305.5 117)" fill="#333">   </text>
<text dominant-baseline="central" text-anchor="start" style="font-size:14px;font-family:Manrope;" x="112.001953125" y="6" transform="translate(305.5 117)" fill="#fff">20%</text>
<text dominant-baseline="central" text-anchor="start" style="font: normal normal 12px sans-serif" xml:space="preserve" x="141.14292907714844" y="6" transform="translate(305.5 117)" fill="#333"> </text>
<text dominant-baseline="central" text-anchor="start" style="font-size:14px;font-family:Manrope;" xml:space="preserve" x="144.47691345214844" y="6" transform="translate(305.5 117)" fill="#6C7080">Search Engine</text>
<path d="M18.5 6A6 6 0 1 1 18.5 5.9994" transform="translate(305.5 199)" fill="#D88ADA"></path>
<image href="https://images.unsplash.com/photo-1702893576128-21feb60299d1?q=80&w=2940&auto=format&fit=crop&ixlib=rb-4.0.3&ixid=M3wxMjA3fDB8MHxwaG90by1wYWdlfHx8fGVufDB8fHx8fA%3D%3D" width="72" height="72" x="30" y="-30" transform="translate(305.5 199)" opacity="1"></image>
<text dominant-baseline="central" text-anchor="start" style="font: normal normal 12px sans-serif" xml:space="preserve" x="102" y="6" transform="translate(305.5 199)" fill="#333">   </text>
<text dominant-baseline="central" text-anchor="start" style="font-size:14px;font-family:Manrope;" x="112.001953125" y="6" transform="translate(305.5 199)" fill="#fff">25%</text>
<text dominant-baseline="central" text-anchor="start" style="font: normal normal 12px sans-serif" xml:space="preserve" x="140.68792724609375" y="6" transform="translate(305.5 199)" fill="#333"> </text>
<text dominant-baseline="central" text-anchor="start" style="font-size:14px;font-family:Manrope;" x="144.02191162109375" y="6" transform="translate(305.5 199)" fill="#6C7080">Other</text>
<path d="M18.5 6A6 6 0 1 1 18.5 5.9994" transform="translate(305.5 281)" fill="#9ECC7F"></path>
<image href="https://images.unsplash.com/photo-1703028408829-ba45aa14b782?q=80&w=2787&auto=format&fit=crop&ixlib=rb-4.0.3&ixid=M3wxMjA3fDB8MHxwaG90by1wYWdlfHx8fGVufDB8fHx8fA%3D%3D" width="72" height="72" x="30" y="-30" transform="translate(305.5 281)" opacity="1"></image>
<text dominant-baseline="central" text-anchor="start" style="font: normal normal 12px sans-serif" xml:space="preserve" x="102" y="6" transform="translate(305.5 281)" fill="#333">   </text>
<text dominant-baseline="central" text-anchor="start" style="font-size:14px;font-family:Manrope;" x="112.001953125" y="6" transform="translate(305.5 281)" fill="#fff">15%</text>
<text dominant-baseline="central" text-anchor="start" style="font: normal normal 12px sans-serif" xml:space="preserve" x="138.1679229736328" y="6" transform="translate(305.5 281)" fill="#333"> </text>
<text dominant-baseline="central" text-anchor="start" style="font-size:14px;font-family:Manrope;" xml:space="preserve" x="141.5019073486328" y="6" transform="translate(305.5 281)" fill="#6C7080">Option 1</text>
<path d="M18.5 6A6 6 0 1 1 18.5 5.9994" transform="translate(305.5 363)" fill="#F9DE82"></path>
<image href="https://images.unsplash.com/photo-1519925610903-381054cc2a1c?q=80&w=2940&auto=format&fit=crop&ixlib=rb-4.0.3&ixid=M3wxMjA3fDB8MHxwaG90by1wYWdlfHx8fGVufDB8fHx8fA%3D%3D" width="72" height="72" x="30" y="-30" transform="translate(305.5 363)" opacity="1"></image>
<text dominant-baseline="central" text-anchor="start" style="font: normal normal 12px sans-serif" xml:space="preserve" x="102" y="6" transform="translate(305.5 363)" fill="#333">   </text>
<text dominant-baseline="central" text-anchor="start" style="font-size:14px;font-family:Manrope;" x="112.001953125" y="6" transform="translate(305.5 363)" fill="#fff">2%</text>
<text dominant-baseline="central" text-anchor="start" style="font: normal normal 12px sans-serif" xml:space="preserve" x="132.60293579101562" y="6" transform="translate(305.5 363)" fill="#333"> </text>
<text dominant-baseline="central" text-anchor="start" style="font-size:14px;font-family:Manrope;" xml:space="preserve" x="135.93692016601562" y="6" transform="translate(305.5 363)" fill="#6C7080">Option 2</text>
<path d="M18.5 6A6 6 0 1 1 18.5 5.9994" transform="translate(305.5 445)" fill="#39519B"></path>
<image href="https://images.unsplash.com/photo-1682687218147-9806132dc697?q=80&w=2875&auto=format&fit=crop&ixlib=rb-4.0.3&ixid=M3wxMjA3fDF8MHxwaG90by1wYWdlfHx8fGVufDB8fHx8fA%3D%3D" width="72" height="72" x="30" y="-30" transform="translate(305.5 445)" opacity="1"></image>
<text dominant-baseline="central" text-anchor="start" style="font: normal normal 12px sans-serif" xml:space="preserve" x="102" y="6" transform="translate(305.5 445)" fill="#333">   </text>
<text dominant-baseline="central" text-anchor="start" style="font-size:14px;font-family:Manrope;" x="112.001953125" y="6" transform="translate(305.5 445)" fill="#fff">3%</text>
<text dominant-baseline="central" text-anchor="start" style="font: normal normal 12px sans-serif" xml:space="preserve" x="132.36492919921875" y="6" transform="translate(305.5 445)" fill="#333"> </text>
<text dominant-baseline="central" text-anchor="start" style="font-size:14px;font-family:Manrope;" xml:space="preserve" x="135.69891357421875" y="6" transform="translate(305.5 445)" fill="#6C7080">Option 3</text>
<path d="M18.5 6A6 6 0 1 1 18.5 5.9994" transform="translate(305.5 527)" fill="#FF877C"></path>
<image href="https://images.unsplash.com/photo-1703615318360-788893a586d8?q=80&w=2785&auto=format&fit=crop&ixlib=rb-4.0.3&ixid=M3wxMjA3fDB8MHxwaG90by1wYWdlfHx8fGVufDB8fHx8fA%3D%3D" width="72" height="72" x="30" y="-30" transform="translate(305.5 527)" opacity="1"></image>
<text dominant-baseline="central" text-anchor="start" style="font: normal normal 12px sans-serif" xml:space="preserve" x="102" y="6" transform="translate(305.5 527)" fill="#333">   </text>
<text dominant-baseline="central" text-anchor="start" style="font-size:14px;font-family:Manrope;" x="112.001953125" y="6" transform="translate(305.5 527)" fill="#fff">5%</text>
<text dominant-baseline="central" text-anchor="start" style="font: normal normal 12px sans-serif" xml:space="preserve" x="132.7079315185547" y="6" transform="translate(305.5 527)" fill="#333"> </text>
<text dominant-baseline="central" text-anchor="start" style="font-size:14px;font-family:Manrope;" xml:space="preserve" x="136.0419158935547" y="6" transform="translate(305.5 527)" fill="#6C7080">Option 4</text>
<path d="M18.5 6A6 6 0 1 1 18.5 5.9994" transform="translate(305.5 609)" fill="#25B4C8"></path>
<image href="https://images.unsplash.com/photo-1682687982029-edb9aecf5f89?q=80&w=2942&auto=format&fit=crop&ixlib=rb-4.0.3&ixid=M3wxMjA3fDF8MHxwaG90by1wYWdlfHx8fGVufDB8fHx8fA%3D%3D" width="72" height="72" x="30" y="-30" transform="translate(305.5 609)" opacity="1"></image>
<text dominant-baseline="central" text-anchor="start" style="font: normal normal 12px sans-serif" xml:space="preserve" x="102" y="6" transform="translate(305.5 609)" fill="#333">   </text>
<text dominant-baseline="central" text-anchor="start" style="font-size:14px;font-family:Manrope;" x="112.001953125" y="6" transform="translate(305.5 609)" fill="#fff">3%</text>
<text dominant-baseline="central" text-anchor="start" style="font: normal normal 12px sans-serif" xml:space="preserve" x="132.36492919921875" y="6" transform="translate(305.5 609)" fill="#333"> </text>
<text dominant-baseline="central" text-anchor="start" style="font-size:14px;font-family:Manrope;" xml:space="preserve" x="135.69891357421875" y="6" transform="translate(305.5 609)" fill="#6C7080">Option 5 Search Engine ...</text>
<path d="M18.5 6A6 6 0 1 1 18.5 5.9994" transform="translate(305.5 691)" fill="#D88ADA"></path>
<image href="https://images.unsplash.com/photo-1704192761191-757e0ccc5186?q=80&w=2944&auto=format&fit=crop&ixlib=rb-4.0.3&ixid=M3wxMjA3fDB8MHxwaG90by1wYWdlfHx8fGVufDB8fHx8fA%3D%3D" width="72" height="72" x="30" y="-30" transform="translate(305.5 691)" opacity="1"></image>
<text dominant-baseline="central" text-anchor="start" style="font: normal normal 12px sans-serif" xml:space="preserve" x="102" y="6" transform="translate(305.5 691)" fill="#333">   </text>
<text dominant-baseline="central" text-anchor="start" style="font-size:14px;font-family:Manrope;" x="112.001953125" y="6" transform="translate(305.5 691)" fill="#fff">2%</text>
<text dominant-baseline="central" text-anchor="start" style="font: normal normal 12px sans-serif" xml:space="preserve" x="132.60293579101562" y="6" transform="translate(305.5 691)" fill="#333"> </text>
<text dominant-baseline="central" text-anchor="start" style="font-size:14px;font-family:Manrope;" xml:space="preserve" x="135.93692016601562" y="6" transform="translate(305.5 691)" fill="#6C7080">Option 6 Option 5 Searc...</text>
<path d="M18.5 6A6 6 0 1 1 18.5 5.9994" transform="translate(305.5 773)" fill="#9ECC7F"></path>
<image href="https://images.unsplash.com/photo-1704587422648-43f456047a72?q=80&w=2787&auto=format&fit=crop&ixlib=rb-4.0.3&ixid=M3wxMjA3fDB8MHxwaG90by1wYWdlfHx8fGVufDB8fHx8fA%3D%3D" width="72" height="72" x="30" y="-30" transform="translate(305.5 773)" opacity="1"></image>
<text dominant-baseline="central" text-anchor="start" style="font: normal normal 12px sans-serif" xml:space="preserve" x="102" y="6" transform="translate(305.5 773)" fill="#333">   </text>
<text dominant-baseline="central" text-anchor="start" style="font-size:14px;font-family:Manrope;" x="112.001953125" y="6" transform="translate(305.5 773)" fill="#fff">2%</text>
<text dominant-baseline="central" text-anchor="start" style="font: normal normal 12px sans-serif" xml:space="preserve" x="132.60293579101562" y="6" transform="translate(305.5 773)" fill="#333"> </text>
<text dominant-baseline="central" text-anchor="start" style="font-size:14px;font-family:Manrope;" xml:space="preserve" x="135.93692016601562" y="6" transform="translate(305.5 773)" fill="#6C7080">Option 7 Option 5 Searc...</text>
<path d="M18.5 6A6 6 0 1 1 18.5 5.9994" transform="translate(305.5 855)" fill="#F9DE82"></path>
<image href="https://images.unsplash.com/photo-1682687220795-796d3f6f7000?q=80&w=2940&auto=format&fit=crop&ixlib=rb-4.0.3&ixid=M3wxMjA3fDF8MHxwaG90by1wYWdlfHx8fGVufDB8fHx8fA%3D%3D" width="72" height="72" x="30" y="-30" transform="translate(305.5 855)" opacity="1"></image>
<text dominant-baseline="central" text-anchor="start" style="font: normal normal 12px sans-serif" xml:space="preserve" x="102" y="6" transform="translate(305.5 855)" fill="#333">   </text>
<text dominant-baseline="central" text-anchor="start" style="font-size:14px;font-family:Manrope;" x="112.001953125" y="6" transform="translate(305.5 855)" fill="#fff">2%</text>
<text dominant-baseline="central" text-anchor="start" style="font: normal normal 12px sans-serif" xml:space="preserve" x="132.60293579101562" y="6" transform="translate(305.5 855)" fill="#333"> </text>
<text dominant-baseline="central" text-anchor="start" style="font-size:14px;font-family:Manrope;" xml:space="preserve" x="135.93692016601562" y="6" transform="translate(305.5 855)" fill="#6C7080">Option 11</text>
<path d="M18.5 6A6 6 0 1 1 18.5 5.9994" transform="translate(305.5 937)" fill="#39519B"></path>
<image href="https://images.unsplash.com/photo-1704419278767-09bc3a98581c?q=80&w=2875&auto=format&fit=crop&ixlib=rb-4.0.3&ixid=M3wxMjA3fDB8MHxwaG90by1wYWdlfHx8fGVufDB8fHx8fA%3D%3D" width="72" height="72" x="30" y="-30" transform="translate(305.5 937)" opacity="1"></image>
<text dominant-baseline="central" text-anchor="start" style="font: normal normal 12px sans-serif" xml:space="preserve" x="102" y="6" transform="translate(305.5 937)" fill="#333">   </text>
<text dominant-baseline="central" text-anchor="start" style="font-size:14px;font-family:Manrope;" x="112.001953125" y="6" transform="translate(305.5 937)" fill="#fff">2%</text>
<text dominant-baseline="central" text-anchor="start" style="font: normal normal 12px sans-serif" xml:space="preserve" x="132.60293579101562" y="6" transform="translate(305.5 937)" fill="#333"> </text>
<text dominant-baseline="central" text-anchor="start" style="font-size:14px;font-family:Manrope;" xml:space="preserve" x="135.93692016601562" y="6" transform="translate(305.5 937)" fill="#6C7080">Option 12</text>
<path d="M18.5 6A6 6 0 1 1 18.5 5.9994" transform="translate(305.5 1019)" fill="#FF877C"></path>
<image href="https://plus.unsplash.com/premium_photo-1697695568731-5b351d7aca4b?q=80&w=2787&auto=format&fit=crop&ixlib=rb-4.0.3&ixid=M3wxMjA3fDB8MHxwaG90by1wYWdlfHx8fGVufDB8fHx8fA%3D%3D" width="72" height="72" x="30" y="-30" transform="translate(305.5 1019)" opacity="1"></image>
<text dominant-baseline="central" text-anchor="start" style="font: normal normal 12px sans-serif" xml:space="preserve" x="102" y="6" transform="translate(305.5 1019)" fill="#333">   </text>
<text dominant-baseline="central" text-anchor="start" style="font-size:14px;font-family:Manrope;" x="112.001953125" y="6" transform="translate(305.5 1019)" fill="#fff">1%</text>
<text dominant-baseline="central" text-anchor="start" style="font: normal normal 12px sans-serif" xml:space="preserve" x="130.0829315185547" y="6" transform="translate(305.5 1019)" fill="#333"> </text>
<text dominant-baseline="central" text-anchor="start" style="font-size:14px;font-family:Manrope;" xml:space="preserve" x="133.4169158935547" y="6" transform="translate(305.5 1019)" fill="#6C7080">Option 13</text>
<path d="M18.5 6A6 6 0 1 1 18.5 5.9994" transform="translate(305.5 1101)" fill="#25B4C8"></path>
<image href="https://images.unsplash.com/photo-1682685797140-c17807f8f217?q=80&w=2940&auto=format&fit=crop&ixlib=rb-4.0.3&ixid=M3wxMjA3fDF8MHxwaG90by1wYWdlfHx8fGVufDB8fHx8fA%3D%3D" width="72" height="72" x="30" y="-30" transform="translate(305.5 1101)" opacity="1"></image>
<text dominant-baseline="central" text-anchor="start" style="font: normal normal 12px sans-serif" xml:space="preserve" x="102" y="6" transform="translate(305.5 1101)" fill="#333">   </text>
<text dominant-baseline="central" text-anchor="start" style="font-size:14px;font-family:Manrope;" x="112.001953125" y="6" transform="translate(305.5 1101)" fill="#fff">3%</text>
<text dominant-baseline="central" text-anchor="start" style="font: normal normal 12px sans-serif" xml:space="preserve" x="132.36492919921875" y="6" transform="translate(305.5 1101)" fill="#333"> </text>
<text dominant-baseline="central" text-anchor="start" style="font-size:14px;font-family:Manrope;" xml:space="preserve" x="135.69891357421875" y="6" transform="translate(305.5 1101)" fill="#6C7080">Option 14</text>
<path d="M18.5 6A6 6 0 1 1 18.5 5.9994" transform="translate(305.5 1183)" fill="#D88ADA"></path>
<image href="https://images.unsplash.com/photo-1682685797857-97de838c192e?q=80&w=2787&auto=format&fit=crop&ixlib=rb-4.0.3&ixid=M3wxMjA3fDF8MHxwaG90by1wYWdlfHx8fGVufDB8fHx8fA%3D%3D" width="72" height="72" x="30" y="-30" transform="translate(305.5 1183)" opacity="1"></image>
<text dominant-baseline="central" text-anchor="start" style="font: normal normal 12px sans-serif" xml:space="preserve" x="102" y="6" transform="translate(305.5 1183)" fill="#333">   </text>
<text dominant-baseline="central" text-anchor="start" style="font-size:14px;font-family:Manrope;" x="112.001953125" y="6" transform="translate(305.5 1183)" fill="#fff">4%</text>
<text dominant-baseline="central" text-anchor="start" style="font: normal normal 12px sans-serif" xml:space="preserve" x="132.8759307861328" y="6" transform="translate(305.5 1183)" fill="#333"> </text>
<text dominant-baseline="central" text-anchor="start" style="font-size:14px;font-family:Manrope;" xml:space="preserve" x="136.2099151611328" y="6" transform="translate(305.5 1183)" fill="#6C7080">Option 15</text>
<path d="M18.5 6A6 6 0 1 1 18.5 5.9994" transform="translate(305.5 1265)" fill="#9ECC7F"></path>
<image href="https://plus.unsplash.com/premium_photo-1663045856607-60692e1e5ec6?q=80&w=2938&auto=format&fit=crop&ixlib=rb-4.0.3&ixid=M3wxMjA3fDB8MHxwaG90by1wYWdlfHx8fGVufDB8fHx8fA%3D%3D" width="72" height="72" x="30" y="-30" transform="translate(305.5 1265)" opacity="1"></image>
<text dominant-baseline="central" text-anchor="start" style="font: normal normal 12px sans-serif" xml:space="preserve" x="102" y="6" transform="translate(305.5 1265)" fill="#333">   </text>
<text dominant-baseline="central" text-anchor="start" style="font-size:14px;font-family:Manrope;" x="112.001953125" y="6" transform="translate(305.5 1265)" fill="#fff">5%</text>
<text dominant-baseline="central" text-anchor="start" style="font: normal normal 12px sans-serif" xml:space="preserve" x="132.7079315185547" y="6" transform="translate(305.5 1265)" fill="#333"> </text>
<text dominant-baseline="central" text-anchor="start" style="font-size:14px;font-family:Manrope;" xml:space="preserve" x="136.0419158935547" y="6" transform="translate(305.5 1265)" fill="#6C7080">Option 16</text>
</g>
<path d="M0.1558 -0.8234C0.0523 -0.8367 -0.0523 -0.8367 -0.1557 -0.8234C-0.2946 -0.8057 -0.4739 -0.7391 -0.794 -0.4821C-1.1272 -0.2145 -1.5243 0.1844 -2.1187 0.7842L-3.5748 2.2533C-3.8988 2.5802 -4.4264 2.5825 -4.7533 2.2586C-5.0802 1.9346 -5.0825 1.4069 -4.7585 1.0801L-3.3025 -0.3891C-3.2912 -0.4004 -3.2801 -0.4117 -3.2689 -0.4229C-2.7169 -0.9799 -2.2535 -1.4476 -1.8376 -1.7816C-1.4002 -2.1329 -0.9353 -2.4042 -0.3665 -2.4767C-0.1232 -2.5078 0.1232 -2.5078 0.3665 -2.4767C0.9353 -2.4042 1.4002 -2.1329 1.8376 -1.7816C2.2535 -1.4476 2.7169 -0.9799 3.2689 -0.4229L4.7586 1.0801C5.0825 1.4069 5.0802 1.9346 4.7533 2.2586C4.4264 2.5825 3.8988 2.5802 3.5748 2.2533L2.1187 0.7842C1.5243 0.1844 1.1272 -0.2145 0.794 -0.4821C0.4739 -0.7391 0.2946 -0.8057 0.1558 -0.8234Z" transform="translate(433.4891 334)" fill="#6C7080"></path>
<text dominant-baseline="central" text-anchor="middle" style="font: normal normal 14px Manrope" transform="translate(460.8176 334)" fill="#C8CAD0">1/6</text>
<path d="M-0.1557 0.8235C-0.0523 0.8366 0.0523 0.8366 0.1558 0.8235C0.2946 0.8058 0.4739 0.7391 0.794 0.4821C1.1272 0.2145 1.5243 -0.1844 2.1187 -0.7841L3.5748 -2.2533C3.8988 -2.5802 4.4264 -2.5825 4.7533 -2.2585C5.0802 -1.9346 5.0825 -1.4069 4.7586 -1.08L3.3025 0.3891C3.2913 0.4004 3.2801 0.4117 3.2689 0.4229C2.7169 0.9799 2.2535 1.4476 1.8376 1.7816C1.4001 2.1329 0.9353 2.4042 0.3665 2.4767C0.1231 2.5078 -0.1231 2.5078 -0.3665 2.4767C-0.9353 2.4042 -1.4001 2.1329 -1.8376 1.7816C-2.2535 1.4476 -2.7169 0.9799 -3.2689 0.4229L-4.7585 -1.08C-5.0825 -1.4069 -5.0802 -1.9346 -4.7533 -2.2585C-4.4264 -2.5825 -3.8988 -2.5802 -3.5748 -2.2533L-2.1187 -0.7841C-1.5243 -0.1844 -1.1272 0.2145 -0.794 0.4821C-0.4739 0.7391 -0.2946 0.8058 -0.1557 0.8235Z" transform="translate(488.146 334)" fill="#C8CAD0"></path>
<defs >
<clipPath id="zr0-c0">
<path d="M0 0l297.6351 0l0 312l-297.6351 0Z" transform="translate(312 5)" fill="#000"></path>
</clipPath>
</defs>
</svg>